<?xml version="1.0" encoding="utf-8"?>
<!-- Generator: Adobe Illustrator 24.1.1, SVG Export Plug-In . SVG Version: 6.00 Build 0)  -->
<svg version="1.1" id="Layer_1" xmlns="http://www.w3.org/2000/svg" xmlns:xlink="http://www.w3.org/1999/xlink" x="0px" y="0px"
	 viewBox="0 0 512 512" style="enable-background:new 0 0 512 512;" xml:space="preserve">
<style type="text/css">
	.st0{fill:#E16B5A;}
	.st1{clip-path:url(#SVGID_2_);fill:#242424;}
	.st2{clip-path:url(#SVGID_4_);fill:#1A1A1A;}
	.st3{clip-path:url(#SVGID_6_);fill:#1A1A1A;}
	.st4{clip-path:url(#SVGID_8_);fill:#FFD7CC;}
	.st5{clip-path:url(#SVGID_10_);fill:#F2CCC2;}
	.st6{clip-path:url(#SVGID_12_);fill:#C23527;}
	.st7{clip-path:url(#SVGID_14_);fill:#FFD7CC;}
	.st8{clip-path:url(#SVGID_16_);fill:#F2CCC2;}
	.st9{clip-path:url(#SVGID_18_);fill:#FFE1D9;}
	.st10{clip-path:url(#SVGID_20_);fill:#F2D6CE;}
	.st11{clip-path:url(#SVGID_22_);fill:#FFD464;}
	.st12{clip-path:url(#SVGID_24_);fill:#C23527;}
	.st13{fill:#F5F5F5;}
	.st14{fill:#242424;}
</style>
<g id="XMLID_1_">
	<circle id="XMLID_3_" class="st0" cx="256" cy="256" r="256"/>
	<g id="XMLID_6_">
		<g>
			<defs>
				<circle id="SVGID_1_" cx="256" cy="256" r="256"/>
			</defs>
			<clipPath id="SVGID_2_">
				<use xlink:href="#SVGID_1_"  style="overflow:visible;"/>
			</clipPath>
			<path id="XMLID_7_" class="st1" d="M367.9,186.7c2.4-59.1-50.4-106.3-111.9-106.3c-37,0-119.7,26.8-112.6,137.1
				c7.1,110.3-37,134.7-59.9,133.9c7.9,13.4,25.2,25.2,35.4,28.4c-26,16.5-48,20.5-82.7,17.3c21.3,73.3,184.3,87.4,184.3,87.4
				l16.5,0.8c5.5,0.8,12.6,1.6,19.7,1.6c141.8,0,208.7-11.8,170.1-100.8C410.4,349.7,363.1,310.4,367.9,186.7z"/>
		</g>
		<g>
			<defs>
				<circle id="SVGID_3_" cx="256" cy="256" r="256"/>
			</defs>
			<clipPath id="SVGID_4_">
				<use xlink:href="#SVGID_3_"  style="overflow:visible;"/>
			</clipPath>
			<path id="XMLID_8_" class="st2" d="M426.1,385.2c-15.8-36.2-63-75.6-58.3-199.3c2.4-59.1-50.4-106.3-111.9-106.3
				c-2.4,0-4.7,0-7.1,0c58.3,3.9,105.6,49.6,103.2,106.3c-4.7,123.7,42.5,163.1,58.3,199.3c37.8,86.6-23.6,100-156.8,100.8
				c0.8,0,1.6,0,2.4,0C397.8,486,464.7,475,426.1,385.2z"/>
		</g>
		<g>
			<defs>
				<circle id="SVGID_5_" cx="256" cy="256" r="256"/>
			</defs>
			<clipPath id="SVGID_6_">
				<use xlink:href="#SVGID_5_"  style="overflow:visible;"/>
			</clipPath>
			<path id="XMLID_9_" class="st3" d="M47.3,397c-3.9,0-7.9-0.8-11.8-0.8v0.8C40.2,397.8,44.1,397.8,47.3,397z"/>
		</g>
		<g>
			<defs>
				<circle id="SVGID_7_" cx="256" cy="256" r="256"/>
			</defs>
			<clipPath id="SVGID_8_">
				<use xlink:href="#SVGID_7_"  style="overflow:visible;"/>
			</clipPath>
			<path id="XMLID_10_" class="st4" d="M386,420.6c-26-16.5-94.5-39.4-130-39.4c-36.2,0-104,22.8-130,39.4c-26,16.5-26,52-26,91.4
				s0,67.7,0,67.7h156h156c0,0,0-29.1,0-67.7C412,472.6,412,437.2,386,420.6z"/>
		</g>
		<g>
			<defs>
				<circle id="SVGID_9_" cx="256" cy="256" r="256"/>
			</defs>
			<clipPath id="SVGID_10_">
				<use xlink:href="#SVGID_9_"  style="overflow:visible;"/>
			</clipPath>
			<path id="XMLID_11_" class="st5" d="M386,420.6c-26-16.5-94.5-39.4-130-39.4c-1.6,0-3.9,0-6.3,0c37,2.4,99.2,23.6,124.5,38.6
				c26,16.5,26,52,26,91.4s0,67.7,0,67.7H412c0,0,0-29.1,0-67.7S412,437.2,386,420.6z"/>
		</g>
		<g>
			<defs>
				<circle id="SVGID_11_" cx="256" cy="256" r="256"/>
			</defs>
			<clipPath id="SVGID_12_">
				<use xlink:href="#SVGID_11_"  style="overflow:visible;"/>
			</clipPath>
			<path id="XMLID_12_" class="st6" d="M345.8,440.3c-25.2,35.4-88.2,0.8-89.8,67.7l0,0c-1.6-67-64.6-32.3-89.8-67.7
				c-22.1,7.9-26,47.3-26,57.5s0,65.4,0,81.9c43.3,0,95.3,0,111.9,0c1.6,0,3.2,0,3.9,0l0,0c1.6,0,6.3,0,11.8,0c21.3,0,66.2,0,104,0
				c0-15.8,0-71.7,0-81.9C371.8,488.4,367.9,448.2,345.8,440.3z"/>
		</g>
		<g>
			<defs>
				<circle id="SVGID_13_" cx="256" cy="256" r="256"/>
			</defs>
			<clipPath id="SVGID_14_">
				<use xlink:href="#SVGID_13_"  style="overflow:visible;"/>
			</clipPath>
			<path id="XMLID_13_" class="st7" d="M211.9,319.8V408c0,8.7,19.7,15.8,44.1,15.8s44.1-7.1,44.1-15.8v-88.2H211.9z"/>
		</g>
		<g>
			<defs>
				<circle id="SVGID_15_" cx="256" cy="256" r="256"/>
			</defs>
			<clipPath id="SVGID_16_">
				<use xlink:href="#SVGID_15_"  style="overflow:visible;"/>
			</clipPath>
			<path id="XMLID_14_" class="st8" d="M288.3,319.8V408c0,7.9-16.5,15-37.8,15.8c1.6,0,3.9,0,6.3,0c24.4,0,44.1-7.1,44.1-15.8
				v-88.2H288.3z"/>
		</g>
		<g>
			<defs>
				<circle id="SVGID_17_" cx="256" cy="256" r="256"/>
			</defs>
			<clipPath id="SVGID_18_">
				<use xlink:href="#SVGID_17_"  style="overflow:visible;"/>
			</clipPath>
			<path id="XMLID_15_" class="st9" d="M175.7,171.7v100c0,20.5,40.2,84.3,80.3,84.3s80.3-63,80.3-84.3v-100H175.7z"/>
		</g>
		<g>
			<defs>
				<circle id="SVGID_19_" cx="256" cy="256" r="256"/>
			</defs>
			<clipPath id="SVGID_20_">
				<use xlink:href="#SVGID_19_"  style="overflow:visible;"/>
			</clipPath>
			<path id="XMLID_16_" class="st10" d="M323.7,171.7v100c0,19.7-36.2,78-74,83.5c2.4,0,3.9,0.8,6.3,0.8c39.4,0,80.3-63,80.3-84.3
				v-100H323.7z"/>
		</g>
		<g>
			<defs>
				<circle id="SVGID_21_" cx="256" cy="256" r="256"/>
			</defs>
			<clipPath id="SVGID_22_">
				<use xlink:href="#SVGID_21_"  style="overflow:visible;"/>
			</clipPath>
			<path id="XMLID_17_" class="st11" d="M336.3,148.1c-23.6-1.6-64.6-20.5-80.3-39.4c-15.8,18.9-56.7,38.6-80.3,39.4v26.8
				c21.3,1.6,47.3,1.6,80.3,1.6s58.3-0.8,80.3-1.6V148.1z"/>
		</g>
		<g>
			<defs>
				<circle id="SVGID_23_" cx="256" cy="256" r="256"/>
			</defs>
			<clipPath id="SVGID_24_">
				<use xlink:href="#SVGID_23_"  style="overflow:visible;"/>
			</clipPath>
			<polygon id="XMLID_18_" class="st12" points="256,126 261.5,142.6 278.8,142.6 264.7,153.6 270.2,170.1 256,159.9 241.8,170.1 
				247.3,153.6 233.2,142.6 250.5,142.6 			"/>
		</g>
	</g>
	<ellipse id="XMLID_4_" class="st13" cx="219.8" cy="211.9" rx="15.8" ry="11.8"/>
	<circle id="XMLID_19_" class="st14" cx="219.8" cy="211.9" r="7.9"/>
	<ellipse id="XMLID_20_" class="st13" cx="292.2" cy="211.9" rx="15.8" ry="11.8"/>
	<circle id="XMLID_21_" class="st14" cx="292.2" cy="211.9" r="7.9"/>
</g>
</svg>
